<?xml version="1.0" encoding="iso-8859-1"?>
<!-- Uploaded to: SVG Repo, www.svgrepo.com, Generator: SVG Repo Mixer Tools -->
<svg fill="#000000" height="800px" width="800px" version="1.1" id="Layer_1" xmlns="http://www.w3.org/2000/svg" xmlns:xlink="http://www.w3.org/1999/xlink" 
	 viewBox="0 0 512 512" xml:space="preserve">
<g>
	<g>
		<g>
			<path d="M350.763,0H161.216c-30.134,0-54.549,24.426-54.549,54.571v402.859c0,30.145,24.415,54.571,54.549,54.571h189.547
				c30.134,0,54.571-24.426,54.571-54.571V54.571C405.333,24.426,380.897,0,350.763,0z M161.216,42.667h189.547
				c6.574,0,11.904,5.328,11.904,11.904v244.096H149.333V54.571C149.333,47.986,154.65,42.667,161.216,42.667z M350.763,469.333
				H161.216c-6.566,0-11.883-5.319-11.883-11.904V341.333h213.333v116.096C362.667,464.006,357.337,469.333,350.763,469.333z"/>
			<path d="M213.325,362.667c-11.782,0-21.333,9.551-21.333,21.333v42.667c0,11.782,9.551,21.333,21.333,21.333
				c11.782,0,21.333-9.551,21.333-21.333V384C234.658,372.218,225.107,362.667,213.325,362.667z"/>
			<path d="M213.325,277.333c11.782,0,21.333-9.551,21.333-21.333v-42.667c0-11.782-9.551-21.333-21.333-21.333
				c-11.782,0-21.333,9.551-21.333,21.333V256C191.991,267.782,201.543,277.333,213.325,277.333z"/>
			<path d="M234.658,128h42.667c11.782,0,21.333-9.551,21.333-21.333c0-11.782-9.551-21.333-21.333-21.333h-42.667
				c-11.782,0-21.333,9.551-21.333,21.333C213.325,118.449,222.876,128,234.658,128z"/>
		</g>
	</g>
</g>
</svg>