<?xml version="1.0" encoding="iso-8859-1"?>
<!-- Uploaded to: SVG Repo, www.svgrepo.com, Generator: SVG Repo Mixer Tools -->
<svg fill="#000000" height="800px" width="800px" version="1.1" id="Layer_1" xmlns="http://www.w3.org/2000/svg" xmlns:xlink="http://www.w3.org/1999/xlink" 
	 viewBox="0 0 512 512" xml:space="preserve">
<g>
	<g>
		<path d="M489.739,77.913c-12.294,0-22.261,9.967-22.261,22.261v22.261h-22.261V89.043c0-30.726-24.926-55.652-55.652-55.652
			c-30.726,0-55.652,24.926-55.652,55.652v11.13h-22.261v-11.13c0-30.726-24.926-55.652-55.652-55.652s-55.652,24.926-55.652,55.652
			v11.13h-22.261v-11.13c0-30.726-24.926-55.652-55.652-55.652c-30.726,0-55.652,24.926-55.652,55.652v33.391H22.261
			C9.967,122.435,0,132.401,0,144.696c0,12.294,9.967,22.261,22.261,22.261h44.522v178.087H22.261C9.967,345.043,0,355.01,0,367.304
			c0,12.294,9.967,22.261,22.261,22.261h44.522v33.391c0,30.726,24.926,55.652,55.652,55.652c30.726,0,55.652-24.926,55.652-55.652
			v-11.13h22.261v11.13c0,30.726,24.926,55.652,55.652,55.652s55.652-24.926,55.652-55.652v-11.13h22.261v11.13
			c0,30.726,24.926,55.652,55.652,55.652c30.726,0,55.652-24.926,55.652-55.652v-33.391h44.522c12.294,0,22.261-9.966,22.261-22.261
			c0-12.294-9.967-22.261-22.261-22.261h-44.522V166.957h22.261v22.261c0,12.294,9.967,22.261,22.261,22.261
			S512,201.512,512,189.217v-89.044C512,87.88,502.033,77.913,489.739,77.913z M311.652,211.478h22.261v89.043h-22.261V211.478z
			 M333.913,144.696v22.261h-22.261v-22.261H333.913z M178.087,211.478h22.261v89.043h-22.261V211.478z M200.348,144.696v22.261
			h-22.261v-22.261H200.348z M133.565,422.957c0,6.138-4.993,11.13-11.13,11.13c-6.138,0-11.13-4.993-11.13-11.13V89.043
			c0-6.138,4.993-11.13,11.13-11.13c6.138,0,11.13,4.993,11.13,11.13v33.391v66.783v133.565v66.783V422.957z M178.087,367.304
			v-22.261h22.261v22.261H178.087z M267.13,422.957c0,6.138-4.993,11.13-11.13,11.13s-11.13-4.993-11.13-11.13v-33.391v-66.783
			V189.217v-66.783V89.043c0-6.138,4.993-11.13,11.13-11.13s11.13,4.993,11.13,11.13v33.391v66.783v133.565v66.783V422.957z
			 M311.652,367.304v-22.261h22.261v22.261H311.652z M400.696,422.957c0,6.138-4.993,11.13-11.13,11.13
			c-6.138,0-11.13-4.993-11.13-11.13v-33.391v-66.783V189.217v-66.783V89.043c0-6.138,4.993-11.13,11.13-11.13
			c6.138,0,11.13,4.993,11.13,11.13V422.957z"/>
	</g>
</g>
</svg>